# xmcd
#
# Track frame offsets:
#	150
#	14358
#	27671
#	48011
#	62156
#	77576
#	97898
#
# Disc length: 1513 seconds
#
# Revision: 1
# Processed by: cddbd v1.5.1PL2 Copyright (c) Steve Scherf et al.
# Submitted via: audiograbber 1.83.01
#
DISCID=4b05e707
DTITLE=Joe Thalman - These Days
DYEAR=2005
DGENRE=Country-Rock
TTITLE0=Down
TTITLE1=These Days
TTITLE2=Tonight
TTITLE3=12th and Porter
TTITLE4=Turnaround
TTITLE5=Wonderful
TTITLE6=Grey Eyes
EXTD=
EXTT0=
EXTT1=
EXTT2=
EXTT3=
EXTT4=
EXTT5=
EXTT6=
PLAYORDER=
